<svg xmlns="http://www.w3.org/2000/svg" width="50" height="42" viewBox="0 0 50 42">
  <g fill="none" fill-rule="evenodd" transform="translate(-25 -30)">
    <rect width="100" height="100"/>
    <g fill="#323232" fill-rule="nonzero" transform="translate(25 30)">
      <path d="M1.66666667,40.0927059 L48.3333333,40.0927059 L48.3333333,36.7002564 L1.66666667,36.7002564 L1.66666667,40.0927059 Z M49.1666667,41.7889306 L0.833333333,41.7889306 C0.3725,41.7889306 0,41.4089763 0,40.9408183 L0,35.852144 C0,35.383986 0.3725,35.0040316 0.833333333,35.0040316 L49.1666667,35.0040316 C49.6275,35.0040316 50,35.383986 50,35.852144 L50,40.9408183 C50,41.4089763 49.6275,41.7889306 49.1666667,41.7889306 Z"/>
      <path d="M4.8055,35.0040316 L27.4996667,35.0040316 C29.338,35.0040316 30.833,33.482518 30.833,31.6115821 C30.833,29.7406462 29.338,28.2191326 27.4996667,28.2191326 L4.8055,28.2191326 L5.00883333,28.5643143 C6.11716667,30.4445795 6.11716667,32.7785847 5.00883333,34.6588499 L4.8055,35.0040316 Z M27.4996667,36.7002564 L3.333,36.7002564 C3.033,36.7002564 2.75633333,36.5357226 2.608,36.2702634 C2.4605,36.0039561 2.46383333,35.6774328 2.61883333,35.4153661 L3.57966667,33.7852941 C4.3705,32.4444284 4.3705,30.7787357 3.57966667,29.4378701 L2.61883333,27.8077981 C2.46383333,27.5457313 2.4605,27.2192081 2.608,26.9529008 C2.75633333,26.6874416 3.033,26.5229078 3.333,26.5229078 L27.4996667,26.5229078 C30.2571667,26.5229078 32.4996667,28.8051782 32.4996667,31.6115821 C32.4996667,34.417986 30.2571667,36.7002564 27.4996667,36.7002564 Z"/>
      <path d="M27.5 31.1875259L9.16666667 31.1875259C8.70583333 31.1875259 8.33333333 31.0925373 8.33333333 30.9754978 8.33333333 30.8584583 8.70583333 30.7634697 9.16666667 30.7634697L27.5 30.7634697C27.9608333 30.7634697 28.3333333 30.8584583 28.3333333 30.9754978 28.3333333 31.0925373 27.9608333 31.1875259 27.5 31.1875259M27.5 32.8837507L9.16666667 32.8837507C8.70583333 32.8837507 8.33333333 32.7887621 8.33333333 32.6717226 8.33333333 32.5546831 8.70583333 32.4596945 9.16666667 32.4596945L27.5 32.4596945C27.9608333 32.4596945 28.3333333 32.5546831 28.3333333 32.6717226 28.3333333 32.7887621 27.9608333 32.8837507 27.5 32.8837507M2.3055 26.5229078L24.9996667 26.5229078C26.838 26.5229078 28.333 25.0013942 28.333 23.1304583 28.333 21.2595224 26.838 19.7380088 24.9996667 19.7380088L2.3055 19.7380088 2.50883333 20.0831905C3.61716667 21.9634557 3.61716667 24.2974609 2.50883333 26.1777261L2.3055 26.5229078zM24.9996667 28.2191326L.833 28.2191326C.533 28.2191326.256333333 28.0545988.108 27.7891396-.0395 27.5228323-.0361666667 27.196309.118833333 26.9342423L1.07966667 25.3041703C1.8705 23.9633047 1.8705 22.2976119 1.07966667 20.9567463L.118833333 19.3266743C-.0361666667 19.0646076-.0395 18.7380843.108 18.471777.256333333 18.2063178.533 18.041784.833 18.041784L24.9996667 18.041784C27.7571667 18.041784 29.9996667 20.3240544 29.9996667 23.1304583 29.9996667 25.9368622 27.7571667 28.2191326 24.9996667 28.2191326z"/>
      <path d="M25 22.7064021L6.66666667 22.7064021C6.20583333 22.7064021 5.83333333 22.6114135 5.83333333 22.494374 5.83333333 22.3773345 6.20583333 22.2823459 6.66666667 22.2823459L25 22.2823459C25.4608333 22.2823459 25.8333333 22.3773345 25.8333333 22.494374 25.8333333 22.6114135 25.4608333 22.7064021 25 22.7064021M25 24.4026269L6.66666667 24.4026269C6.20583333 24.4026269 5.83333333 24.3076383 5.83333333 24.1905988 5.83333333 24.0735593 6.20583333 23.9785707 6.66666667 23.9785707L25 23.9785707C25.4608333 23.9785707 25.8333333 24.0735593 25.8333333 24.1905988 25.8333333 24.3076383 25.4608333 24.4026269 25 24.4026269M4.8055 18.041784L27.4996667 18.041784C29.338 18.041784 30.833 16.5202704 30.833 14.6493345 30.833 12.7783986 29.338 11.256885 27.4996667 11.256885L4.8055 11.256885 5.00883333 11.6020667C6.11716667 13.4823319 6.11716667 15.8163371 5.00883333 17.6966023L4.8055 18.041784zM27.4996667 19.7380088L3.333 19.7380088C3.033 19.7380088 2.75633333 19.573475 2.608 19.3080158 2.4605 19.0417085 2.46383333 18.7151853 2.61883333 18.4531185L3.57966667 16.8230465C4.3705 15.4821809 4.3705 13.8164881 3.57966667 12.4756225L2.61883333 10.8455505C2.46383333 10.5834838 2.4605 10.2569605 2.608 9.9906532 2.75633333 9.72519403 3.033 9.56066023 3.333 9.56066023L27.4996667 9.56066023C30.2571667 9.56066023 32.4996667 11.8429306 32.4996667 14.6493345 32.4996667 17.4557384 30.2571667 19.7380088 27.4996667 19.7380088z"/>
      <path d="M29.7729167 3.68307182L37.96875 34.8138848 44.4079167 33.0574441 36.2129167 1.92747919 29.7729167 3.68307182zM37.3795833 36.7000867C37.2345833 36.7000867 37.0904167 36.6619217 36.9629167 36.5864397 36.77125 36.4744888 36.63125 36.2887522 36.5745833 36.0716355L27.9479167 3.30311747C27.8904167 3.08515259 27.9195833 2.85361791 28.0304167 2.65940018 28.14125 2.46433433 28.32375 2.32269956 28.5370833 2.26417981L36.58625.0692649693C37.03125-.0528632133 37.48875.216836523 37.60625.668880421L46.23375 33.4373984C46.3529167 33.8894423 46.08875 34.355056 45.6445833 34.4763361L37.5954167 36.6712509C37.5245833 36.6907575 37.4520833 36.7000867 37.3795833 36.7000867zM27.5 14.2252783L9.16666667 14.2252783C8.70583333 14.2252783 8.33333333 14.1302897 8.33333333 14.0132502 8.33333333 13.8962107 8.70583333 13.8012221 9.16666667 13.8012221L27.5 13.8012221C27.9608333 13.8012221 28.3333333 13.8962107 28.3333333 14.0132502 28.3333333 14.1302897 27.9608333 14.2252783 27.5 14.2252783M27.5 15.9215031L9.16666667 15.9215031C8.70583333 15.9215031 8.33333333 15.8265145 8.33333333 15.709475 8.33333333 15.5924355 8.70583333 15.4974469 9.16666667 15.4974469L27.5 15.4974469C27.9608333 15.4974469 28.3333333 15.5924355 28.3333333 15.709475 28.3333333 15.8265145 27.9608333 15.9215031 27.5 15.9215031"/>
      <path d="M31.0669167 8.59864636L31.4985833 10.2371995 37.93775 8.48075874 37.5069167 6.84220562 31.0669167 8.59864636zM30.9094167 12.1242495C30.7644167 12.1242495 30.62025 12.0852363 30.49275 12.0106025 30.3010833 11.8978035 30.1610833 11.712915 30.1044167 11.4957982L29.2419167 8.21869201C29.12275 7.7658 29.3860833 7.30103442 29.8310833 7.17975435L37.88025 4.98483951C38.0919167 4.92547164 38.32025 4.9568518 38.51275 5.06880263 38.7035833 5.18160158 38.8435833 5.36649008 38.90025 5.58445496L39.7635833 8.86156119C39.8819167 9.31360509 39.6185833 9.77837068 39.1744167 9.89965075L31.1244167 12.0954137C31.0535833 12.1149203 30.9810833 12.1242495 30.9094167 12.1242495zM36.2435 28.2597572L36.6751667 29.8983103 43.1143333 28.1418695 42.6835 26.5033164 36.2435 28.2597572zM36.086 31.7853603C35.941 31.7853603 35.7968333 31.7463471 35.6693333 31.6717133 35.4776667 31.5589143 35.3376667 31.3740258 35.281 31.156909L34.4185 27.8798028C34.2993333 27.4269108 34.5626667 26.9621452 35.0076667 26.8408651L43.0568333 24.6459503C43.2693333 24.5865824 43.4968333 24.6179626 43.6893333 24.7299134 43.8801667 24.8427124 44.0201667 25.0276009 44.0768333 25.2455658L44.9401667 28.522672C45.0585 28.9747159 44.7951667 29.4394815 44.351 29.5607615L36.301 31.7565245C36.2301667 31.7760311 36.1576667 31.7853603 36.086 31.7853603z"/>
      <path d="M36.0609581,24.9823965 C35.988974,24.9823965 35.9228662,24.7322033 35.9034419,24.3530971 L35.3966153,14.5226265 C35.3732735,14.0697345 35.4250172,13.6049689 35.5120183,13.4836888 C35.5990195,13.3615607 35.6886323,13.6312604 35.7118109,14.0833043 L36.2188007,23.914623 C36.2419792,24.3666669 36.1903988,24.8322806 36.1033977,24.9527126 C36.0891967,24.9730673 36.0749958,24.9823965 36.0609581,24.9823965" transform="rotate(-12 35.808 19.218)"/>
      <path d="M38.5609581,24.1342841 C38.488974,24.1342841 38.4228662,23.884091 38.4034419,23.5049847 L37.8966153,13.6745141 C37.8732735,13.2216221 37.9250172,12.7568565 38.0120183,12.6355765 C38.0990195,12.5134483 38.1886323,12.783148 38.2118109,13.2351919 L38.7188007,23.0665106 C38.7419792,23.5185545 38.6903988,23.9841682 38.6033977,24.1046002 C38.5891967,24.1249549 38.5749958,24.1342841 38.5609581,24.1342841" transform="rotate(-12 38.308 18.37)"/>
    </g>
  </g>
</svg>
