<svg xmlns="http://www.w3.org/2000/svg" width="50" height="42" viewBox="0 0 50 42">
  <g fill="none" fill-rule="evenodd" transform="translate(-25 -30)">
    <rect width="100" height="100"/>
    <path fill="#323232" fill-rule="nonzero" d="M71.6666667,33.89508 L71.6666667,30.84 C71.6666667,30.37632 71.2933333,30 70.8333333,30 L59.1666667,30 C58.7066667,30 58.3333333,30.37632 58.3333333,30.84 L58.3333333,33.43812 C54.0475,34.2126 52.5,40.96452 52.5,46.8 C52.5,48.4128 53.195,50.1096 55.0175,50.74044 C55.2108333,54.81192 57.4416667,56.88 61.6666667,56.88 L68.3333333,56.88 C72.6325,56.88 75,53.29992 75,46.8 C75,44.07672 74.7283333,36.03792 71.6666667,33.89508 Z M60,31.68 L70,31.68 L70,33.36 L60,33.36 L60,31.68 Z M68.3333333,55.2 L61.6666667,55.2 C58.4083333,55.2 56.9241667,53.9652 56.7008333,50.99832 C58.0241667,50.98824 59.11,50.40444 59.7558333,49.3494 C60.3333333,48.40776 60.4641667,47.19984 60.1325,46.13472 C60.4825,45.90204 61.2483333,45.5736 62.5266667,45.37116 C64.98,44.98392 68.1333333,45.26532 69.4108333,46.55388 C69.7366667,46.88232 70.2633333,46.88232 70.5891667,46.55388 C70.915,46.22544 70.915,45.69456 70.5891667,45.36612 C68.8125,43.5744 65.0941667,43.251 62.1975,43.72308 C61.0375,43.91292 59.0058333,44.406 58.4216667,45.58368 C58.3041667,45.82056 58.3041667,46.0986 58.4216667,46.33632 C58.75,46.99572 58.7158333,47.85168 58.3383333,48.46656 C58.0983333,48.85548 57.6158333,49.32 56.6666667,49.32 C54.6008333,49.32 54.1666667,47.94996 54.1666667,46.8 C54.1666667,42.73272 55.2116667,35.04 59.1666667,35.04 L70,35.04 C72.165,35.04 73.3333333,41.09892 73.3333333,46.8 C73.3333333,52.37424 71.65,55.2 68.3333333,55.2 Z M44.9816667,51.25956 C44.7891667,47.18808 42.5591667,45.12 38.3333333,45.12 L31.6666667,45.12 C27.3675,45.12 25,48.70008 25,55.2 C25,57.92328 25.2716667,65.96292 28.3333333,68.10492 L28.3333333,71.16 C28.3333333,71.62368 28.7066667,72 29.1666667,72 L40.8333333,72 C41.2933333,72 41.6666667,71.62368 41.6666667,71.16 L41.6666667,68.56188 C45.9516667,67.78656 47.5,61.03548 47.5,55.2 C47.5,53.5872 46.805,51.89124 44.9816667,51.25956 Z M40,70.32 L30,70.32 L30,68.64 L40,68.64 L40,70.32 Z M40.8333333,66.96 L30,66.96 C27.835,66.96 26.6666667,60.90108 26.6666667,55.2 C26.6666667,49.62576 28.3491667,46.8 31.6666667,46.8 L38.3333333,46.8 C41.5916667,46.8 43.0758333,48.0348 43.2991667,51.00168 C41.9758333,51.01176 40.8908333,51.59556 40.2441667,52.6506 C39.6666667,53.59224 39.5358333,54.80016 39.8675,55.86528 C39.5175,56.09712 38.7516667,56.4264 37.4733333,56.62884 C35.0216667,57.01692 31.8675,56.73552 30.5891667,55.44612 C30.2633333,55.11768 29.7366667,55.11768 29.4108333,55.44612 C29.085,55.77456 29.085,56.30544 29.4108333,56.63388 C31.1883333,58.4256 34.9066667,58.75068 37.8033333,58.27692 C38.9625,58.08708 40.9941667,57.594 41.5783333,56.41632 C41.6958333,56.17944 41.6958333,55.9014 41.5783333,55.66368 C41.2508333,55.00428 41.285,54.14832 41.6616667,53.53428 C41.9016667,53.14452 42.385,52.68 43.3333333,52.68 C45.3991667,52.68 45.8333333,54.05004 45.8333333,55.2 C45.8333333,59.26728 44.7883333,66.96 40.8333333,66.96 Z"/>
  </g>
</svg>
