<svg xmlns="http://www.w3.org/2000/svg" width="100" height="100" viewBox="0 0 100 100">
  <g fill="none" fill-rule="evenodd">
    <rect width="100" height="100" fill="#FFF"/>
    <path fill="#3A3B3C" fill-rule="nonzero" d="M50,90 C27.943862,90 10,72.056138 10,50 C10,27.943862 27.943862,10 50,10 C72.056138,10 90,27.943862 90,50 C90,72.056138 72.0560339,90 50,90 Z M83.7340813,55.475465 C82.5651723,55.1064894 73.1587939,52.3010454 62.4518337,54.0148757 C66.9207932,66.2949305 68.7391076,76.2971702 69.0892281,78.3749759 C76.7546916,73.1921288 82.2111974,64.9820565 83.7340813,55.475465 Z M63.3459381,81.502935 C62.8377893,78.5053987 60.8540505,68.0584507 56.0573673,55.5934914 C55.9821554,55.6191176 55.9071519,55.6434937 55.83194,55.6696408 C36.5610367,62.3847472 29.6432124,75.7489153 29.0286003,77.0058492 C38.8019172,84.626447 51.9390701,86.3479938 63.3459381,81.502935 Z M24.6171435,72.8966983 C25.391034,71.5718445 34.7678277,56.0462209 52.3886536,50.3505373 C52.8339523,50.2065722 53.2827233,50.0711492 53.7349667,49.9442682 C52.8773224,48.0034481 51.9432161,46.0603362 50.9650452,44.1461839 C33.9027871,49.252465 17.3460735,49.0391216 15.8512118,49.008391 C15.8407946,49.3552823 15.8338151,49.7030069 15.8338151,50.0523983 C15.8272282,58.4929277 18.9576338,66.6347074 24.6171435,72.8966983 Z M16.5555156,43.0544661 C18.0836081,43.0745712 32.1604138,43.1357199 48.1416837,38.8916668 C42.480585,28.8286951 36.3750905,20.3674651 35.4744233,19.1321989 C25.9161627,23.6407436 18.770932,32.4523025 16.5555156,43.0544661 Z M41.9934789,16.8357371 C42.9378981,18.1001714 49.143189,26.5505675 54.7418889,36.8366746 C66.8908959,32.2830237 72.0343662,25.3701996 72.6489783,24.4949503 C64.2992018,17.0798082 52.8496588,14.2191635 41.9934789,16.8357371 Z M76.4467605,28.4461772 C75.7265184,29.4209104 70.0015626,36.7600044 57.3686787,41.9175378 C58.163716,43.5450099 58.9258351,45.2001917 59.6354517,46.8663114 C59.8869218,47.4566169 60.1322458,48.0443528 60.3714237,48.6295191 C71.7398732,47.2000771 83.035611,49.4910178 84.162018,49.7292581 C84.0966313,41.9619229 81.3739058,34.4510928 76.4467605,28.4461772 Z"/>
  </g>
</svg>
