<svg xmlns="http://www.w3.org/2000/svg" width="84" height="56" viewBox="0 0 84 56">
  <g fill="none" fill-rule="evenodd" transform="translate(-8 -22)">
    <rect width="100" height="100"/>
    <path fill="#3A3B3C" d="M10,22.0017898 L48.295082,57.4387517 C49.1024577,58.1870828 50.8975738,58.1870828 51.704918,57.4387517 L90,22.0017898 C89.9549167,21.9977627 89.9139357,22.0017898 89.8688525,22.0017898 L10.1311475,22.0017898 C10.0860643,22.0017898 10.0450833,21.9977627 10,22.0017898 Z M8,26 L8,75.9316243 C8,77.0789523 8.935151,78 10.1,78 L89.9,78 C91.06487,78 92,77.0789316 92,75.9316243 L92,26 L54.59375,60.7425071 C52.026185,63.1259999 47.973815,63.1259999 45.40625,60.7425071 L8,26 Z"/>
  </g>
</svg>
