<svg xmlns="http://www.w3.org/2000/svg" width="82" height="68" viewBox="0 0 82 68">
  <g fill="none" fill-rule="evenodd" transform="translate(-9 -16)">
    <rect width="88" height="88" x="6" y="6"/>
    <path fill="#3A3B3C" d="M86.3255928,18.2016192 C87.9974721,19.527629 88.6856966,21.7365078 88.0838957,23.7745227 C89.406308,24.7294343 90.2674903,26.2824571 90.2710971,28.0372178 C90.2710971,29.2263373 89.8783675,30.3109258 89.2153626,31.1865258 C87.4641994,33.7592156 85.3959007,36.0617222 83.0465341,38.0651732 C82.7329039,60.7553929 65.3762419,84 36.4955163,84 C27.5921095,84 18.9115646,81.4559982 11.4023352,76.6456495 C9.35569637,75.3304322 8.48370213,72.7721325 9.30885386,70.484016 C10.0511427,68.3761446 12.0329163,67.0068722 14.2201186,67.0068722 C14.4255002,67.0068722 14.6308911,67.02129 14.8326752,67.0465095 C15.7947818,67.1546104 16.7460959,67.2158606 17.6901227,67.2158606 C19.5098233,67.2158606 21.3006516,67.0140765 23.0338272,66.6213193 C20.3637276,64.300825 18.3027162,61.2632247 17.1748468,57.7320258 C16.8829863,56.8275718 16.8505532,55.8834989 17.0523373,54.9898835 C13.7950114,51.4117324 11.8384204,46.6484282 11.8384204,41.466889 C11.8384204,40.166154 12.3248792,38.9373695 13.1572352,37.9897452 C12.3824949,35.8458063 11.9645182,33.5468972 11.9645182,31.186738 C11.9645182,27.688378 12.8905573,24.258002 14.6453181,21.2492741 C15.5101071,19.7682941 17.0414525,18.8026176 18.753043,18.6692971 C18.8935678,18.6620928 19.0341017,18.6512818 19.1638155,18.6512818 C20.7240333,18.6512818 22.2194034,19.3539978 23.2138878,20.5826901 C28.442287,26.9968881 35.6994122,31.385681 43.666264,33.0900764 C44.9705965,23.4515759 53.2476654,16 63.2395534,16 C67.5992893,16 71.8403993,17.4557974 75.2598905,20.0717497 C77.0507187,19.5276014 78.7623092,18.7565324 80.4017647,17.7944257 C81.2268888,17.3043786 82.1457421,17.0629572 83.064577,17.0629572 C84.2285139,17.0629572 85.3779684,17.444931 86.3255928,18.2016192 Z"/>
  </g>
</svg>
