<svg xmlns="http://www.w3.org/2000/svg" width="100" height="100" viewBox="0 0 100 100">
  <g fill="none" fill-rule="evenodd">
    <rect width="100" height="100" fill="#FFF"/>
    <path fill="#3A3B3C" d="M30.9090909,10 C19.3254545,10 10,19.3254545 10,30.9090909 L10,69.0909091 C10,80.6745455 19.3254545,90 30.9090909,90 L69.0909091,90 C80.6745455,90 90,80.6745455 90,69.0909091 L90,30.9090909 C90,19.3254545 80.6745455,10 69.0909091,10 L30.9090909,10 Z M35.0555556,17 L63.9444444,17 C73.9174306,17 82,25.0826597 82,35.0555556 L82,63.9444444 C82,73.9174306 73.9173403,82 63.9444444,82 L35.0555556,82 C25.0825694,82 17,73.9173403 17,63.9444444 L17,35.0555556 C17,25.0825694 25.0826597,17 35.0555556,17 Z M35.5,21 C27.435825,21 21,27.435825 21,35.5 L21,64.5 C21,72.564175 27.435825,79 35.5,79 L64.5,79 C72.564175,79 79,72.564175 79,64.5 L79,35.5 C79,27.435825 72.564175,21 64.5,21 L35.5,21 Z M68.5,26 C70.4345375,26 72,27.5654625 72,29.5 C72,31.4345375 70.4345375,33 68.5,33 C66.5654625,33 65,31.4345375 65,29.5 C65,27.5654625 66.5654625,26 68.5,26 Z M50.5,33 C60.1425,33 68,40.8576842 68,50.5 C68,60.1423158 60.1423158,68 50.5,68 C40.8576842,68 33,60.1423158 33,50.5 C33,40.8576842 40.8576842,33 50.5,33 Z M50.5,37 C43.02226,37 37,43.02226 37,50.5 C37,57.97774 43.02226,64 50.5,64 C57.97774,64 64,57.97774 64,50.5 C64,43.02226 57.97774,37 50.5,37 Z"/>
  </g>
</svg>
