<svg xmlns="http://www.w3.org/2000/svg" width="100" height="100" viewBox="0 0 100 100">
  <g fill="none" fill-rule="evenodd">
    <rect width="100" height="100" fill="#FFF"/>
    <path fill="#3A3B3C" fill-rule="nonzero" d="M87,56.7058735 L87,83.6557312 L71.3537363,83.6557312 L71.3537363,58.5108125 C71.3537363,52.1942039 69.090673,47.8833656 63.4272442,47.8833656 C59.1039345,47.8833656 56.5311299,50.7885547 55.3992588,53.5988363 C54.9864967,54.6035009 54.8802512,56.0018626 54.8802512,57.4081897 L54.8802512,83.6557312 L39.2287261,83.6557312 C39.2287261,83.6557312 39.4395199,41.0684922 39.2287261,36.6561366 L54.8787237,36.6561366 L54.8787237,43.318141 C54.8469858,43.3679675 54.8057436,43.421692 54.7758726,43.4699932 L54.8787237,43.4699932 L54.8787237,43.318141 C56.9579789,40.1202636 60.6713104,35.5519885 68.9829,35.5519885 C79.2803981,35.551819 87,42.2694121 87,56.7058735 Z M22.8565646,14 C17.5021982,14 14,17.5070049 14,22.1188359 C14,26.6301665 17.4008746,30.2436036 22.6488258,30.2436036 L22.7533741,30.2436036 C28.2114401,30.2436036 31.6058654,26.6308445 31.6058654,22.1188359 C31.5030143,17.5070049 28.2114401,14 22.8565646,14 Z M14.9295634,83.6557312 L30.5751482,83.6557312 L30.5751482,36.6561366 L14.9295634,36.6561366 L14.9295634,83.6557312 Z"/>
  </g>
</svg>
