<svg xmlns="http://www.w3.org/2000/svg" width="88" height="88" viewBox="0 0 88 88">
  <path fill="#3A3B3C" fill-rule="evenodd" d="M23,0 C10.258,0 0,10.258 0,23 L0,65 C0,77.742 10.258,88 23,88 L65,88 C77.742,88 88,77.742 88,65 L88,23 C88,10.258 77.742,0 65,0 L23,0 Z M28,8 L60,8 C71.047,8 80,16.9531 80,28 L80,60 C80,71.047 71.0469,80 60,80 L28,80 C16.953,80 8,71.0469 8,60 L8,28 C8,16.953 16.9531,8 28,8 Z M28,12 C19.1016,12 12,19.1016 12,28 L12,60 C12,68.8984 19.1016,76 28,76 L60,76 C68.8984,76 76,68.8984 76,60 L76,28 C76,19.1016 68.8984,12 60,12 L28,12 Z M64,18 C66.2109,18 68,19.7891 68,22 C68,24.2109 66.2109,26 64,26 C61.7891,26 60,24.2109 60,22 C60,19.7891 61.7891,18 64,18 Z M44,25 C54.469,25 63,33.5312 63,44 C63,54.4688 54.4688,63 44,63 C33.5312,63 25,54.4688 25,44 C25,33.5312 33.5312,25 44,25 Z M44,29 C35.6914,29 29,35.6914 29,44 C29,52.3086 35.6914,59 44,59 C52.3086,59 59,52.3086 59,44 C59,35.6914 52.3086,29 44,29 Z"/>
</svg>
