<svg xmlns="http://www.w3.org/2000/svg" width="89" height="88" viewBox="0 0 89 88">
  <g fill="none" fill-rule="evenodd">
    <rect width="88" height="88" fill="#FFF"/>
    <path fill="#3A3B3C" d="M83.8270831,12.38673 C85.6395331,13.82423 86.3856231,16.21883 85.7332231,18.4282 C87.1668231,19.4634 88.1004131,21.147 88.1043231,23.0493 C88.1043231,24.3384 87.6785731,25.51418 86.9598231,26.4634 C85.0614231,29.2524 82.8192231,31.7485 80.2723231,33.9204 C79.9323231,58.5184 61.1163231,83.7174 29.8073231,83.7174 C20.1553231,83.7174 10.7449231,80.9595 2.60432211,75.7447 C0.385603108,74.3189 -0.559707892,71.5455 0.334822108,69.065 C1.13952211,66.7799 3.28792211,65.2955 5.65902311,65.2955 C5.88167311,65.2955 6.10433311,65.31113 6.32308311,65.33847 C7.36608311,65.45566 8.39738311,65.52206 9.42078311,65.52206 C11.3934831,65.52206 13.3348831,65.30331 15.2137831,64.87753 C12.3191831,62.36193 10.0848831,59.06893 8.86218311,55.24083 C8.54578311,54.26033 8.51062311,53.23688 8.72937311,52.26813 C5.19817311,48.38913 3.07707311,43.22533 3.07707311,37.60813 C3.07707311,36.19803 3.60443311,34.86593 4.50677311,33.83863 C3.66689311,31.51443 3.21377311,29.02223 3.21377311,26.46363 C3.21377311,22.67113 4.21767311,18.95233 6.11997311,15.69063 C7.05747311,14.08513 8.71757311,13.03826 10.5730731,12.89373 C10.7254131,12.88592 10.8777631,12.8742 11.0183831,12.8742 C12.7097831,12.8742 14.3308831,13.636 15.4089831,14.968 C21.0769831,21.9215 28.9442831,26.6793 37.5809831,28.527 C38.9949831,18.0781 47.9679831,10 58.7999831,10 C63.5262831,10 68.1239831,11.5782 71.8309831,14.4141 C73.7723831,13.8242 75.6278831,12.9883 77.4051831,11.9453 C78.2996831,11.41405 79.2957931,11.15233 80.2918831,11.15233 C81.5536831,11.15233 82.7997831,11.56642 83.8270831,12.38673 Z"/>
  </g>
</svg>
